<svg width="1024" height="1024" viewBox="0 0 1024 1024" xmlns="http://www.w3.org/2000/svg">
  <!-- Background -->
  <rect width="1024" height="1024" fill="#1A1A2E"/>
  
  <!-- Shield shape -->
  <path d="M 512 120 L 820 220 L 820 520 Q 820 780 512 920 Q 204 780 204 520 L 204 220 Z" fill="#FFB800"/>
  
  <!-- Inner shield -->
  <path d="M 512 180 L 760 260 L 760 500 Q 760 720 512 840 Q 264 720 264 500 L 264 260 Z" fill="#1A1A2E"/>
  
  <!-- Crown element -->
  <g fill="#FFB800">
    <polygon points="380,340 420,280 470,330 512,260 554,330 604,280 644,340 644,380 380,380"/>
  </g>
  
  <!-- IQ text -->
  <text x="512" y="620" font-family="Arial Black, sans-serif" font-size="260" font-weight="900" fill="#FFB800" text-anchor="middle">IQ</text>
  
  <!-- Small decorative balls -->
  <circle cx="380" cy="700" r="24" fill="#FFB800"/>
  <circle cx="512" cy="740" r="24" fill="#FFB800"/>
  <circle cx="644" cy="700" r="24" fill="#FFB800"/>
</svg>